<mxfile host="app.diagrams.net" modified="2021-03-19T07:30:38.456Z" agent="5.0 (Macintosh; Intel Mac OS X 10_14_6) AppleWebKit/537.36 (KHTML, like Gecko) Chrome/89.0.4389.82 Safari/537.36" etag="KR6ZPmI5sk7Lr2Gndpfm" version="14.4.6" type="github">
  <diagram id="8dDou3pMWxGuU96nbHgM" name="Page-1">
    <mxGraphModel dx="946" dy="614" grid="1" gridSize="10" guides="1" tooltips="1" connect="1" arrows="1" fold="1" page="1" pageScale="1" pageWidth="827" pageHeight="1169" math="0" shadow="0">
      <root>
        <mxCell id="0" />
        <mxCell id="1" parent="0" />
        <mxCell id="M_0ubYgLpEhorPyLPJEU-5" style="edgeStyle=orthogonalEdgeStyle;rounded=0;orthogonalLoop=1;jettySize=auto;html=1;entryX=-0.037;entryY=0.375;entryDx=0;entryDy=0;entryPerimeter=0;" edge="1" parent="1" source="M_0ubYgLpEhorPyLPJEU-1" target="M_0ubYgLpEhorPyLPJEU-4">
          <mxGeometry relative="1" as="geometry" />
        </mxCell>
        <mxCell id="M_0ubYgLpEhorPyLPJEU-7" value="把state修改成a" style="edgeLabel;html=1;align=center;verticalAlign=middle;resizable=0;points=[];" vertex="1" connectable="0" parent="M_0ubYgLpEhorPyLPJEU-5">
          <mxGeometry x="-0.627" y="1" relative="1" as="geometry">
            <mxPoint as="offset" />
          </mxGeometry>
        </mxCell>
        <mxCell id="M_0ubYgLpEhorPyLPJEU-1" value="Actor" style="shape=umlActor;verticalLabelPosition=bottom;verticalAlign=top;html=1;outlineConnect=0;" vertex="1" parent="1">
          <mxGeometry x="60" y="80" width="30" height="60" as="geometry" />
        </mxCell>
        <mxCell id="M_0ubYgLpEhorPyLPJEU-6" style="edgeStyle=orthogonalEdgeStyle;rounded=0;orthogonalLoop=1;jettySize=auto;html=1;entryX=0;entryY=0.5;entryDx=0;entryDy=0;" edge="1" parent="1" source="M_0ubYgLpEhorPyLPJEU-2" target="M_0ubYgLpEhorPyLPJEU-4">
          <mxGeometry relative="1" as="geometry" />
        </mxCell>
        <mxCell id="M_0ubYgLpEhorPyLPJEU-8" value="把 state修改成b" style="edgeLabel;html=1;align=center;verticalAlign=middle;resizable=0;points=[];" vertex="1" connectable="0" parent="M_0ubYgLpEhorPyLPJEU-6">
          <mxGeometry x="-0.625" y="3" relative="1" as="geometry">
            <mxPoint as="offset" />
          </mxGeometry>
        </mxCell>
        <mxCell id="M_0ubYgLpEhorPyLPJEU-2" value="b&lt;br&gt;" style="shape=umlActor;verticalLabelPosition=bottom;verticalAlign=top;html=1;outlineConnect=0;" vertex="1" parent="1">
          <mxGeometry x="60" y="200" width="30" height="60" as="geometry" />
        </mxCell>
        <mxCell id="M_0ubYgLpEhorPyLPJEU-4" value="协调者，先到先得" style="ellipse;whiteSpace=wrap;html=1;aspect=fixed;" vertex="1" parent="1">
          <mxGeometry x="360" y="140" width="80" height="80" as="geometry" />
        </mxCell>
        <mxCell id="M_0ubYgLpEhorPyLPJEU-24" value="Actor" style="shape=umlActor;verticalLabelPosition=bottom;verticalAlign=top;html=1;outlineConnect=0;" vertex="1" parent="1">
          <mxGeometry x="60" y="390" width="30" height="60" as="geometry" />
        </mxCell>
        <mxCell id="M_0ubYgLpEhorPyLPJEU-27" value="b&lt;br&gt;" style="shape=umlActor;verticalLabelPosition=bottom;verticalAlign=top;html=1;outlineConnect=0;" vertex="1" parent="1">
          <mxGeometry x="60" y="510" width="30" height="60" as="geometry" />
        </mxCell>
        <mxCell id="M_0ubYgLpEhorPyLPJEU-28" value="协调者，先到先得" style="ellipse;whiteSpace=wrap;html=1;aspect=fixed;" vertex="1" parent="1">
          <mxGeometry x="360" y="450" width="80" height="80" as="geometry" />
        </mxCell>
        <mxCell id="M_0ubYgLpEhorPyLPJEU-29" value="问题：单点故障" style="text;html=1;strokeColor=none;fillColor=none;align=center;verticalAlign=middle;whiteSpace=wrap;rounded=0;" vertex="1" parent="1">
          <mxGeometry x="340" y="90" width="100" height="20" as="geometry" />
        </mxCell>
        <mxCell id="M_0ubYgLpEhorPyLPJEU-30" value="协调者，先到先得" style="ellipse;whiteSpace=wrap;html=1;aspect=fixed;" vertex="1" parent="1">
          <mxGeometry x="360" y="545" width="80" height="80" as="geometry" />
        </mxCell>
        <mxCell id="M_0ubYgLpEhorPyLPJEU-31" value="协调者，先到先得" style="ellipse;whiteSpace=wrap;html=1;aspect=fixed;" vertex="1" parent="1">
          <mxGeometry x="350" y="340" width="80" height="80" as="geometry" />
        </mxCell>
        <mxCell id="M_0ubYgLpEhorPyLPJEU-33" value="把state修改成a" style="html=1;verticalAlign=bottom;startArrow=oval;startFill=1;endArrow=block;startSize=8;entryX=0;entryY=0.5;entryDx=0;entryDy=0;" edge="1" parent="1" target="M_0ubYgLpEhorPyLPJEU-31">
          <mxGeometry width="60" relative="1" as="geometry">
            <mxPoint x="90" y="400" as="sourcePoint" />
            <mxPoint x="150" y="400" as="targetPoint" />
          </mxGeometry>
        </mxCell>
        <mxCell id="M_0ubYgLpEhorPyLPJEU-34" value="把state修改成a" style="html=1;verticalAlign=bottom;startArrow=oval;startFill=1;endArrow=block;startSize=8;entryX=0.013;entryY=0.338;entryDx=0;entryDy=0;entryPerimeter=0;" edge="1" parent="1" target="M_0ubYgLpEhorPyLPJEU-28">
          <mxGeometry width="60" relative="1" as="geometry">
            <mxPoint x="90" y="420" as="sourcePoint" />
            <mxPoint x="150" y="420" as="targetPoint" />
          </mxGeometry>
        </mxCell>
        <mxCell id="M_0ubYgLpEhorPyLPJEU-35" value="把 state修改成b" style="html=1;verticalAlign=bottom;startArrow=oval;startFill=1;endArrow=block;startSize=8;entryX=0;entryY=0.5;entryDx=0;entryDy=0;" edge="1" parent="1" target="M_0ubYgLpEhorPyLPJEU-28">
          <mxGeometry width="60" relative="1" as="geometry">
            <mxPoint x="80" y="540" as="sourcePoint" />
            <mxPoint x="140" y="540" as="targetPoint" />
          </mxGeometry>
        </mxCell>
        <mxCell id="M_0ubYgLpEhorPyLPJEU-36" value="把 state修改成b" style="html=1;verticalAlign=bottom;startArrow=oval;startFill=1;endArrow=block;startSize=8;entryX=0.013;entryY=0.288;entryDx=0;entryDy=0;entryPerimeter=0;" edge="1" parent="1" target="M_0ubYgLpEhorPyLPJEU-30">
          <mxGeometry width="60" relative="1" as="geometry">
            <mxPoint x="80" y="570" as="sourcePoint" />
            <mxPoint x="360" y="520" as="targetPoint" />
          </mxGeometry>
        </mxCell>
        <mxCell id="M_0ubYgLpEhorPyLPJEU-37" value="把 state修改成b" style="html=1;verticalAlign=bottom;startArrow=oval;startFill=1;endArrow=block;startSize=8;exitX=1;exitY=0.3333333333333333;exitDx=0;exitDy=0;exitPerimeter=0;" edge="1" parent="1" source="M_0ubYgLpEhorPyLPJEU-27" target="M_0ubYgLpEhorPyLPJEU-31">
          <mxGeometry width="60" relative="1" as="geometry">
            <mxPoint x="90" y="580" as="sourcePoint" />
            <mxPoint x="371.03999999999996" y="578.04" as="targetPoint" />
          </mxGeometry>
        </mxCell>
        <mxCell id="M_0ubYgLpEhorPyLPJEU-38" value="把state修改成a" style="html=1;verticalAlign=bottom;startArrow=oval;startFill=1;endArrow=block;startSize=8;entryX=0;entryY=0.5;entryDx=0;entryDy=0;" edge="1" parent="1" source="M_0ubYgLpEhorPyLPJEU-24" target="M_0ubYgLpEhorPyLPJEU-30">
          <mxGeometry width="60" relative="1" as="geometry">
            <mxPoint x="100" y="430" as="sourcePoint" />
            <mxPoint x="371.03999999999996" y="487.03999999999996" as="targetPoint" />
          </mxGeometry>
        </mxCell>
        <mxCell id="M_0ubYgLpEhorPyLPJEU-39" value="问题：多个协调者听谁的" style="text;html=1;strokeColor=none;fillColor=none;align=center;verticalAlign=middle;whiteSpace=wrap;rounded=0;" vertex="1" parent="1">
          <mxGeometry x="450" y="290" width="100" height="20" as="geometry" />
        </mxCell>
        <mxCell id="M_0ubYgLpEhorPyLPJEU-41" value="client客户端" style="shape=umlActor;verticalLabelPosition=bottom;verticalAlign=top;html=1;outlineConnect=0;" vertex="1" parent="1">
          <mxGeometry x="60" y="700" width="30" height="60" as="geometry" />
        </mxCell>
        <mxCell id="M_0ubYgLpEhorPyLPJEU-45" value="客户端向分布式系统发出请求 ，并等待响应 。例如，对分布式文件服务器中文件的写请求。" style="text;html=1;align=center;verticalAlign=middle;resizable=0;points=[];autosize=1;" vertex="1" parent="1">
          <mxGeometry x="90" y="730" width="500" height="20" as="geometry" />
        </mxCell>
        <mxCell id="M_0ubYgLpEhorPyLPJEU-46" value="&lt;div&gt;提案者提倡客户请求，试图说服Acceptor对此达成一致，并在发生冲突时充当协调者以推动协议向前发&lt;/div&gt;&lt;div&gt;展&lt;/div&gt;" style="text;html=1;strokeColor=none;fillColor=none;align=center;verticalAlign=middle;whiteSpace=wrap;rounded=0;" vertex="1" parent="1">
          <mxGeometry x="180" y="850" width="380" height="20" as="geometry" />
        </mxCell>
        <mxCell id="M_0ubYgLpEhorPyLPJEU-47" value="&lt;span&gt;提案者(proposer)&lt;/span&gt;" style="shape=umlActor;verticalLabelPosition=bottom;verticalAlign=top;html=1;outlineConnect=0;" vertex="1" parent="1">
          <mxGeometry x="60" y="820" width="30" height="60" as="geometry" />
        </mxCell>
        <mxCell id="M_0ubYgLpEhorPyLPJEU-48" value="Acceptor决策者，批准提案" style="shape=umlActor;verticalLabelPosition=bottom;verticalAlign=top;html=1;outlineConnect=0;" vertex="1" parent="1">
          <mxGeometry x="60" y="960" width="30" height="60" as="geometry" />
        </mxCell>
        <mxCell id="M_0ubYgLpEhorPyLPJEU-51" value="Acceptor可以接受（accept）提案；如果某个提案被选定（chosen），那么该提案里的value就被选定了" style="text;html=1;strokeColor=none;fillColor=none;align=center;verticalAlign=middle;whiteSpace=wrap;rounded=0;" vertex="1" parent="1">
          <mxGeometry x="170" y="990" width="270" height="20" as="geometry" />
        </mxCell>
        <mxCell id="M_0ubYgLpEhorPyLPJEU-52" value="Learners：最终策略学习者" style="shape=umlActor;verticalLabelPosition=bottom;verticalAlign=top;html=1;outlineConnect=0;" vertex="1" parent="1">
          <mxGeometry x="60" y="1080" width="30" height="60" as="geometry" />
        </mxCell>
        <mxCell id="M_0ubYgLpEhorPyLPJEU-57" value="学习者充当该协议的复制因素" style="text;html=1;strokeColor=none;fillColor=none;align=center;verticalAlign=middle;whiteSpace=wrap;rounded=0;" vertex="1" parent="1">
          <mxGeometry x="180" y="1100" width="110" height="20" as="geometry" />
        </mxCell>
        <mxCell id="M_0ubYgLpEhorPyLPJEU-58" value="三种角色" style="rounded=1;whiteSpace=wrap;html=1;fillColor=#fa6800;strokeColor=#C73500;fontColor=#ffffff;" vertex="1" parent="1">
          <mxGeometry x="787" y="700" width="120" height="60" as="geometry" />
        </mxCell>
        <mxCell id="M_0ubYgLpEhorPyLPJEU-59" value="proposer" style="rounded=1;whiteSpace=wrap;html=1;fillColor=#0050ef;strokeColor=#001DBC;fontColor=#ffffff;" vertex="1" parent="1">
          <mxGeometry x="620" y="830" width="120" height="60" as="geometry" />
        </mxCell>
        <mxCell id="M_0ubYgLpEhorPyLPJEU-60" value="accepter" style="rounded=1;whiteSpace=wrap;html=1;fillColor=#0050ef;strokeColor=#001DBC;fontColor=#ffffff;" vertex="1" parent="1">
          <mxGeometry x="790" y="830" width="120" height="60" as="geometry" />
        </mxCell>
        <mxCell id="M_0ubYgLpEhorPyLPJEU-61" value="leaner" style="rounded=1;whiteSpace=wrap;html=1;fillColor=#0050ef;strokeColor=#001DBC;fontColor=#ffffff;" vertex="1" parent="1">
          <mxGeometry x="950" y="830" width="120" height="60" as="geometry" />
        </mxCell>
        <mxCell id="M_0ubYgLpEhorPyLPJEU-67" value="&lt;span style=&quot;font-size: 12px ; background-color: rgb(248 , 249 , 250)&quot;&gt;多个&lt;/span&gt;" style="html=1;verticalAlign=bottom;endArrow=block;exitX=0.5;exitY=1;exitDx=0;exitDy=0;" edge="1" parent="1" source="M_0ubYgLpEhorPyLPJEU-58" target="M_0ubYgLpEhorPyLPJEU-59">
          <mxGeometry width="80" relative="1" as="geometry">
            <mxPoint x="770" y="790" as="sourcePoint" />
            <mxPoint x="850" y="790" as="targetPoint" />
          </mxGeometry>
        </mxCell>
        <mxCell id="M_0ubYgLpEhorPyLPJEU-68" value="&lt;span style=&quot;font-size: 12px ; background-color: rgb(248 , 249 , 250)&quot;&gt;多个&lt;/span&gt;" style="html=1;verticalAlign=bottom;endArrow=block;entryX=0.5;entryY=0;entryDx=0;entryDy=0;" edge="1" parent="1" target="M_0ubYgLpEhorPyLPJEU-60">
          <mxGeometry width="80" relative="1" as="geometry">
            <mxPoint x="850" y="760" as="sourcePoint" />
            <mxPoint x="827.0000000000001" y="830" as="targetPoint" />
          </mxGeometry>
        </mxCell>
        <mxCell id="M_0ubYgLpEhorPyLPJEU-69" value="&lt;span style=&quot;font-size: 12px ; background-color: rgb(248 , 249 , 250)&quot;&gt;多个&lt;/span&gt;" style="html=1;verticalAlign=bottom;endArrow=block;entryX=0.25;entryY=0;entryDx=0;entryDy=0;exitX=0.558;exitY=1.017;exitDx=0;exitDy=0;exitPerimeter=0;" edge="1" parent="1" source="M_0ubYgLpEhorPyLPJEU-58" target="M_0ubYgLpEhorPyLPJEU-61">
          <mxGeometry width="80" relative="1" as="geometry">
            <mxPoint x="860" y="770" as="sourcePoint" />
            <mxPoint x="860" y="840" as="targetPoint" />
          </mxGeometry>
        </mxCell>
        <mxCell id="M_0ubYgLpEhorPyLPJEU-70" value="提案&lt;br&gt;proposer" style="rounded=1;whiteSpace=wrap;html=1;fillColor=#0050ef;strokeColor=#001DBC;fontColor=#ffffff;" vertex="1" parent="1">
          <mxGeometry x="1100" y="700" width="120" height="60" as="geometry" />
        </mxCell>
        <mxCell id="M_0ubYgLpEhorPyLPJEU-71" value="" style="line;strokeWidth=1;rotatable=0;dashed=0;labelPosition=right;align=left;verticalAlign=middle;spacingTop=0;spacingLeft=6;points=[];portConstraint=eastwest;" vertex="1" parent="1">
          <mxGeometry x="1220" y="720" width="60" height="10" as="geometry" />
        </mxCell>
        <mxCell id="M_0ubYgLpEhorPyLPJEU-72" value="" style="line;strokeWidth=1;rotatable=0;dashed=0;labelPosition=right;align=left;verticalAlign=middle;spacingTop=0;spacingLeft=6;points=[];portConstraint=eastwest;" vertex="1" parent="1">
          <mxGeometry x="1220" y="730" width="60" height="10" as="geometry" />
        </mxCell>
        <mxCell id="M_0ubYgLpEhorPyLPJEU-73" value="value" style="rounded=1;whiteSpace=wrap;html=1;fillColor=#fa6800;strokeColor=#C73500;fontColor=#ffffff;" vertex="1" parent="1">
          <mxGeometry x="1280" y="700" width="120" height="60" as="geometry" />
        </mxCell>
        <mxCell id="M_0ubYgLpEhorPyLPJEU-74" value="proposer" style="ellipse;whiteSpace=wrap;html=1;" vertex="1" parent="1">
          <mxGeometry x="1121" y="820" width="109" height="60" as="geometry" />
        </mxCell>
        <mxCell id="M_0ubYgLpEhorPyLPJEU-75" value="accept" style="ellipse;whiteSpace=wrap;html=1;" vertex="1" parent="1">
          <mxGeometry x="1270" y="820" width="109" height="60" as="geometry" />
        </mxCell>
        <mxCell id="M_0ubYgLpEhorPyLPJEU-83" value="选定" style="edgeStyle=orthogonalEdgeStyle;rounded=0;orthogonalLoop=1;jettySize=auto;html=1;" edge="1" parent="1" source="M_0ubYgLpEhorPyLPJEU-76" target="M_0ubYgLpEhorPyLPJEU-82">
          <mxGeometry relative="1" as="geometry" />
        </mxCell>
        <mxCell id="M_0ubYgLpEhorPyLPJEU-76" value="chosen" style="ellipse;whiteSpace=wrap;html=1;" vertex="1" parent="1">
          <mxGeometry x="1410" y="820" width="109" height="60" as="geometry" />
        </mxCell>
        <mxCell id="M_0ubYgLpEhorPyLPJEU-78" value="提出提案" style="edgeStyle=orthogonalEdgeStyle;rounded=0;orthogonalLoop=1;jettySize=auto;html=1;" edge="1" parent="1" source="M_0ubYgLpEhorPyLPJEU-77" target="M_0ubYgLpEhorPyLPJEU-74">
          <mxGeometry relative="1" as="geometry" />
        </mxCell>
        <mxCell id="M_0ubYgLpEhorPyLPJEU-77" value="proposer" style="rounded=1;whiteSpace=wrap;html=1;fillColor=#0050ef;strokeColor=#001DBC;fontColor=#ffffff;" vertex="1" parent="1">
          <mxGeometry x="1135" y="920" width="81" height="40" as="geometry" />
        </mxCell>
        <mxCell id="M_0ubYgLpEhorPyLPJEU-80" style="edgeStyle=orthogonalEdgeStyle;rounded=0;orthogonalLoop=1;jettySize=auto;html=1;exitX=0.5;exitY=0;exitDx=0;exitDy=0;entryX=0.587;entryY=0.983;entryDx=0;entryDy=0;entryPerimeter=0;" edge="1" parent="1" source="M_0ubYgLpEhorPyLPJEU-79" target="M_0ubYgLpEhorPyLPJEU-75">
          <mxGeometry relative="1" as="geometry" />
        </mxCell>
        <mxCell id="M_0ubYgLpEhorPyLPJEU-81" value="接受" style="edgeLabel;html=1;align=center;verticalAlign=middle;resizable=0;points=[];" vertex="1" connectable="0" parent="M_0ubYgLpEhorPyLPJEU-80">
          <mxGeometry x="-0.1914" y="5" relative="1" as="geometry">
            <mxPoint x="1" as="offset" />
          </mxGeometry>
        </mxCell>
        <mxCell id="M_0ubYgLpEhorPyLPJEU-79" value="acceptor" style="rounded=1;whiteSpace=wrap;html=1;fillColor=#0050ef;strokeColor=#001DBC;fontColor=#ffffff;" vertex="1" parent="1">
          <mxGeometry x="1290" y="920" width="81" height="40" as="geometry" />
        </mxCell>
        <mxCell id="M_0ubYgLpEhorPyLPJEU-82" value="value" style="rounded=1;whiteSpace=wrap;html=1;fillColor=#0050ef;strokeColor=#001DBC;fontColor=#ffffff;" vertex="1" parent="1">
          <mxGeometry x="1430" y="920" width="81" height="40" as="geometry" />
        </mxCell>
        <mxCell id="M_0ubYgLpEhorPyLPJEU-84" value="对某个数据的值达成一致--最终要做到每个proposer、acceptor、和leaner都认为同一个value被选定" style="text;html=1;strokeColor=none;fillColor=none;align=center;verticalAlign=middle;whiteSpace=wrap;rounded=0;" vertex="1" parent="1">
          <mxGeometry x="1100" y="1010" width="500" height="20" as="geometry" />
        </mxCell>
        <mxCell id="M_0ubYgLpEhorPyLPJEU-88" value="&lt;ul&gt;&lt;li&gt;在这些被提出的提案中，只有一个会被选定&lt;/li&gt;&lt;li&gt;如果没有提案被提出，就不应该有被选定的提案&lt;br&gt;&lt;/li&gt;&lt;li&gt;当一个提案被选定后，那么所有进程都应该能学习（learn）到这个被选定的value&lt;br&gt;&lt;/li&gt;&lt;/ul&gt;" style="text;strokeColor=none;fillColor=none;html=1;whiteSpace=wrap;verticalAlign=middle;overflow=hidden;" vertex="1" parent="1">
          <mxGeometry x="940" y="1080" width="290" height="100" as="geometry" />
        </mxCell>
        <mxCell id="M_0ubYgLpEhorPyLPJEU-89" value="proposer" style="ellipse;whiteSpace=wrap;html=1;aspect=fixed;fillColor=#0050ef;strokeColor=#001DBC;fontColor=#ffffff;" vertex="1" parent="1">
          <mxGeometry x="710" y="1200" width="80" height="80" as="geometry" />
        </mxCell>
        <mxCell id="M_0ubYgLpEhorPyLPJEU-90" value="proposer" style="ellipse;whiteSpace=wrap;html=1;aspect=fixed;fillColor=#0050ef;strokeColor=#001DBC;fontColor=#ffffff;" vertex="1" parent="1">
          <mxGeometry x="710" y="1290" width="80" height="80" as="geometry" />
        </mxCell>
        <mxCell id="M_0ubYgLpEhorPyLPJEU-91" value="proposer" style="ellipse;whiteSpace=wrap;html=1;aspect=fixed;fillColor=#0050ef;strokeColor=#001DBC;fontColor=#ffffff;" vertex="1" parent="1">
          <mxGeometry x="710" y="1380" width="80" height="80" as="geometry" />
        </mxCell>
        <mxCell id="M_0ubYgLpEhorPyLPJEU-92" value="acceptor" style="ellipse;whiteSpace=wrap;html=1;aspect=fixed;fillColor=#fa6800;strokeColor=#C73500;fontColor=#ffffff;" vertex="1" parent="1">
          <mxGeometry x="910" y="1270" width="80" height="80" as="geometry" />
        </mxCell>
        <mxCell id="M_0ubYgLpEhorPyLPJEU-96" value="value1" style="html=1;verticalAlign=bottom;startArrow=oval;startFill=1;endArrow=block;startSize=8;entryX=0;entryY=0.375;entryDx=0;entryDy=0;entryPerimeter=0;" edge="1" parent="1" target="M_0ubYgLpEhorPyLPJEU-92">
          <mxGeometry width="60" relative="1" as="geometry">
            <mxPoint x="790" y="1240" as="sourcePoint" />
            <mxPoint x="850" y="1240" as="targetPoint" />
          </mxGeometry>
        </mxCell>
        <mxCell id="M_0ubYgLpEhorPyLPJEU-97" value="value2" style="html=1;verticalAlign=bottom;startArrow=oval;startFill=1;endArrow=block;startSize=8;exitX=1.025;exitY=0.375;exitDx=0;exitDy=0;exitPerimeter=0;" edge="1" parent="1" source="M_0ubYgLpEhorPyLPJEU-90">
          <mxGeometry width="60" relative="1" as="geometry">
            <mxPoint x="800" y="1250" as="sourcePoint" />
            <mxPoint x="910" y="1310" as="targetPoint" />
          </mxGeometry>
        </mxCell>
        <mxCell id="M_0ubYgLpEhorPyLPJEU-98" value="value3" style="html=1;verticalAlign=bottom;startArrow=oval;startFill=1;endArrow=block;startSize=8;entryX=0;entryY=0.375;entryDx=0;entryDy=0;entryPerimeter=0;" edge="1" parent="1">
          <mxGeometry width="60" relative="1" as="geometry">
            <mxPoint x="787" y="1410" as="sourcePoint" />
            <mxPoint x="927" y="1330" as="targetPoint" />
          </mxGeometry>
        </mxCell>
        <mxCell id="M_0ubYgLpEhorPyLPJEU-99" value="1个acceptor，先到先得，单点故障" style="text;html=1;strokeColor=none;fillColor=none;align=center;verticalAlign=middle;whiteSpace=wrap;rounded=0;" vertex="1" parent="1">
          <mxGeometry x="1020" y="1290" width="180" height="20" as="geometry" />
        </mxCell>
        <mxCell id="M_0ubYgLpEhorPyLPJEU-100" value="proposer" style="ellipse;whiteSpace=wrap;html=1;aspect=fixed;fillColor=#0050ef;strokeColor=#001DBC;fontColor=#ffffff;" vertex="1" parent="1">
          <mxGeometry x="720" y="1520" width="80" height="80" as="geometry" />
        </mxCell>
        <mxCell id="M_0ubYgLpEhorPyLPJEU-101" value="proposer" style="ellipse;whiteSpace=wrap;html=1;aspect=fixed;fillColor=#0050ef;strokeColor=#001DBC;fontColor=#ffffff;" vertex="1" parent="1">
          <mxGeometry x="720" y="1610" width="80" height="80" as="geometry" />
        </mxCell>
        <mxCell id="M_0ubYgLpEhorPyLPJEU-102" value="proposer" style="ellipse;whiteSpace=wrap;html=1;aspect=fixed;fillColor=#0050ef;strokeColor=#001DBC;fontColor=#ffffff;" vertex="1" parent="1">
          <mxGeometry x="720" y="1700" width="80" height="80" as="geometry" />
        </mxCell>
        <mxCell id="M_0ubYgLpEhorPyLPJEU-103" value="acceptor" style="ellipse;whiteSpace=wrap;html=1;aspect=fixed;fillColor=#fa6800;strokeColor=#C73500;fontColor=#ffffff;" vertex="1" parent="1">
          <mxGeometry x="920" y="1590" width="80" height="80" as="geometry" />
        </mxCell>
        <mxCell id="M_0ubYgLpEhorPyLPJEU-104" value="value1" style="html=1;verticalAlign=bottom;startArrow=oval;startFill=1;endArrow=block;startSize=8;entryX=0;entryY=0.375;entryDx=0;entryDy=0;entryPerimeter=0;" edge="1" parent="1" target="M_0ubYgLpEhorPyLPJEU-103">
          <mxGeometry width="60" relative="1" as="geometry">
            <mxPoint x="800" y="1560" as="sourcePoint" />
            <mxPoint x="860" y="1560" as="targetPoint" />
          </mxGeometry>
        </mxCell>
        <mxCell id="M_0ubYgLpEhorPyLPJEU-105" value="value2" style="html=1;verticalAlign=bottom;startArrow=oval;startFill=1;endArrow=block;startSize=8;exitX=1.025;exitY=0.375;exitDx=0;exitDy=0;exitPerimeter=0;" edge="1" parent="1" source="M_0ubYgLpEhorPyLPJEU-101">
          <mxGeometry width="60" relative="1" as="geometry">
            <mxPoint x="810" y="1570" as="sourcePoint" />
            <mxPoint x="920" y="1630" as="targetPoint" />
          </mxGeometry>
        </mxCell>
        <mxCell id="M_0ubYgLpEhorPyLPJEU-106" value="value3" style="html=1;verticalAlign=bottom;startArrow=oval;startFill=1;endArrow=block;startSize=8;entryX=0;entryY=0.375;entryDx=0;entryDy=0;entryPerimeter=0;" edge="1" parent="1">
          <mxGeometry width="60" relative="1" as="geometry">
            <mxPoint x="797" y="1730" as="sourcePoint" />
            <mxPoint x="937" y="1650" as="targetPoint" />
          </mxGeometry>
        </mxCell>
        <mxCell id="M_0ubYgLpEhorPyLPJEU-107" value="多个accotor：如何保证在多个accptor和proposer情况下选定一个值" style="text;html=1;strokeColor=none;fillColor=none;align=center;verticalAlign=middle;whiteSpace=wrap;rounded=0;" vertex="1" parent="1">
          <mxGeometry x="1030" y="1610" width="180" height="20" as="geometry" />
        </mxCell>
        <mxCell id="M_0ubYgLpEhorPyLPJEU-108" value="acceptor" style="ellipse;whiteSpace=wrap;html=1;aspect=fixed;fillColor=#fa6800;strokeColor=#C73500;fontColor=#ffffff;" vertex="1" parent="1">
          <mxGeometry x="930" y="1714" width="80" height="80" as="geometry" />
        </mxCell>
        <mxCell id="M_0ubYgLpEhorPyLPJEU-109" value="acceptor" style="ellipse;whiteSpace=wrap;html=1;aspect=fixed;fillColor=#fa6800;strokeColor=#C73500;fontColor=#ffffff;" vertex="1" parent="1">
          <mxGeometry x="920" y="1490" width="80" height="80" as="geometry" />
        </mxCell>
        <mxCell id="M_0ubYgLpEhorPyLPJEU-110" value="value1" style="html=1;verticalAlign=bottom;startArrow=oval;startFill=1;endArrow=block;startSize=8;" edge="1" parent="1" target="M_0ubYgLpEhorPyLPJEU-109">
          <mxGeometry width="60" relative="1" as="geometry">
            <mxPoint x="800" y="1560" as="sourcePoint" />
            <mxPoint x="930" y="1630" as="targetPoint" />
          </mxGeometry>
        </mxCell>
        <mxCell id="M_0ubYgLpEhorPyLPJEU-111" value="value1" style="html=1;verticalAlign=bottom;startArrow=oval;startFill=1;endArrow=block;startSize=8;" edge="1" parent="1" target="M_0ubYgLpEhorPyLPJEU-108">
          <mxGeometry width="60" relative="1" as="geometry">
            <mxPoint x="800" y="1560" as="sourcePoint" />
            <mxPoint x="940" y="1640" as="targetPoint" />
          </mxGeometry>
        </mxCell>
        <mxCell id="M_0ubYgLpEhorPyLPJEU-112" value="value2" style="html=1;verticalAlign=bottom;startArrow=oval;startFill=1;endArrow=block;startSize=8;exitX=1.013;exitY=0.413;exitDx=0;exitDy=0;exitPerimeter=0;entryX=0.05;entryY=0.688;entryDx=0;entryDy=0;entryPerimeter=0;" edge="1" parent="1" source="M_0ubYgLpEhorPyLPJEU-101" target="M_0ubYgLpEhorPyLPJEU-109">
          <mxGeometry width="60" relative="1" as="geometry">
            <mxPoint x="812" y="1650" as="sourcePoint" />
            <mxPoint x="930" y="1640" as="targetPoint" />
          </mxGeometry>
        </mxCell>
        <mxCell id="M_0ubYgLpEhorPyLPJEU-113" value="value2" style="html=1;verticalAlign=bottom;startArrow=oval;startFill=1;endArrow=block;startSize=8;" edge="1" parent="1" target="M_0ubYgLpEhorPyLPJEU-108">
          <mxGeometry width="60" relative="1" as="geometry">
            <mxPoint x="800" y="1640" as="sourcePoint" />
            <mxPoint x="934" y="1555.04" as="targetPoint" />
          </mxGeometry>
        </mxCell>
        <mxCell id="M_0ubYgLpEhorPyLPJEU-114" value="value3" style="html=1;verticalAlign=bottom;startArrow=oval;startFill=1;endArrow=block;startSize=8;entryX=0;entryY=1;entryDx=0;entryDy=0;" edge="1" parent="1" target="M_0ubYgLpEhorPyLPJEU-109">
          <mxGeometry width="60" relative="1" as="geometry">
            <mxPoint x="800" y="1730" as="sourcePoint" />
            <mxPoint x="947" y="1660" as="targetPoint" />
          </mxGeometry>
        </mxCell>
        <mxCell id="M_0ubYgLpEhorPyLPJEU-115" value="value3" style="html=1;verticalAlign=bottom;startArrow=oval;startFill=1;endArrow=block;startSize=8;entryX=0;entryY=0.5;entryDx=0;entryDy=0;" edge="1" parent="1" target="M_0ubYgLpEhorPyLPJEU-108">
          <mxGeometry width="60" relative="1" as="geometry">
            <mxPoint x="800" y="1730" as="sourcePoint" />
            <mxPoint x="941.7157287525379" y="1568.2842712474621" as="targetPoint" />
          </mxGeometry>
        </mxCell>
        <mxCell id="M_0ubYgLpEhorPyLPJEU-116" value="首先我们希望即使只有一个Proposer提出了一个value，该value也最终被选定。&lt;br&gt;&lt;br&gt;P1：一个Acceptor必须接受它收到的第一个提案。" style="text;html=1;strokeColor=none;fillColor=none;align=center;verticalAlign=middle;whiteSpace=wrap;rounded=0;" vertex="1" parent="1">
          <mxGeometry x="710" y="1840" width="490" height="60" as="geometry" />
        </mxCell>
      </root>
    </mxGraphModel>
  </diagram>
</mxfile>
